<?xml version="1.0" encoding="utf-8"?>
<!-- Generator: Adobe Illustrator 19.0.0, SVG Export Plug-In . SVG Version: 6.00 Build 0)  -->
<svg version="1.1" id="Capa_1" xmlns="http://www.w3.org/2000/svg" xmlns:xlink="http://www.w3.org/1999/xlink" x="0px" y="0px"
	 viewBox="-779.5 -1297.5 2083 2083" style="enable-background:new -779.5 -1297.5 2083 2083;" xml:space="preserve">
<style type="text/css">
	.st0{fill:none;stroke:url(#SVGID_1_);stroke-width:6;stroke-miterlimit:10;}
	.st1{fill:none;stroke:url(#XMLID_2_);stroke-width:6;stroke-miterlimit:10;}
	.st2{fill:none;stroke:url(#XMLID_3_);stroke-width:6;stroke-miterlimit:10;}
	.st3{fill:none;stroke:url(#XMLID_4_);stroke-width:6;stroke-miterlimit:10;}
	.st4{opacity:0.3;fill:#1D1B30;}
	.st5{fill:url(#XMLID_5_);}
	.st6{fill:url(#XMLID_6_);}
	.st7{fill:url(#XMLID_7_);}
	.st8{fill:url(#XMLID_8_);}
	.st9{opacity:0.2;fill:none;stroke:url(#XMLID_9_);stroke-width:2;stroke-miterlimit:10;}
	.st10{fill:url(#XMLID_10_);}
	.st11{fill:url(#XMLID_11_);}
	.st12{fill:url(#XMLID_13_);}
	.st13{fill:url(#XMLID_14_);}
	.st14{fill:url(#XMLID_15_);}
	.st15{fill:url(#XMLID_16_);}
	.st16{fill:url(#XMLID_17_);}
	.st17{fill:url(#XMLID_18_);}
	.st18{fill:url(#XMLID_19_);}
	.st19{fill:url(#XMLID_20_);}
	.st20{fill:url(#XMLID_21_);}
	.st21{fill:url(#XMLID_22_);}
	.st22{fill:url(#XMLID_23_);}
	.st23{fill:url(#XMLID_24_);}
	.st24{fill:url(#XMLID_25_);}
	.st25{fill:url(#XMLID_26_);}
	.st26{opacity:0.2;fill:none;stroke:url(#XMLID_27_);stroke-width:2;stroke-miterlimit:10;}
	.st27{fill:url(#XMLID_28_);}
	.st28{fill:url(#XMLID_29_);}
	.st29{fill:url(#XMLID_30_);}
	.st30{opacity:0.4;fill:url(#XMLID_31_);}
	.st31{opacity:0.55;fill:url(#XMLID_32_);}
	.st32{fill:url(#XMLID_33_);}
	.st33{fill:url(#XMLID_34_);}
	.st34{fill:url(#XMLID_35_);}
	.st35{fill:url(#XMLID_36_);}
	.st36{fill:url(#XMLID_37_);}
	.st37{clip-path:url(#XMLID_38_);fill:url(#XMLID_41_);}
	.st38{clip-path:url(#XMLID_38_);fill:url(#XMLID_42_);}
	.st39{clip-path:url(#XMLID_38_);fill:url(#XMLID_43_);}
	.st40{clip-path:url(#XMLID_38_);fill:url(#XMLID_44_);}
	.st41{clip-path:url(#XMLID_38_);fill:url(#XMLID_45_);}
	.st42{clip-path:url(#XMLID_38_);fill:url(#XMLID_46_);}
	.st43{clip-path:url(#XMLID_38_);fill:url(#XMLID_47_);}
	.st44{clip-path:url(#XMLID_38_);fill:url(#XMLID_51_);}
	.st45{opacity:0.55;fill:url(#XMLID_53_);}
	.st46{fill:url(#XMLID_54_);}
	.st47{opacity:5.000000e-002;fill:url(#XMLID_55_);}
	.st48{fill:url(#XMLID_56_);}
	.st49{fill:url(#XMLID_57_);}
	.st50{opacity:0.2;fill:none;stroke:url(#XMLID_58_);stroke-width:2;stroke-miterlimit:10;}
	.st51{fill:url(#XMLID_59_);}
	.st52{fill:url(#SVGID_2_);}
	.st53{fill:url(#SVGID_3_);}
	.st54{fill:url(#SVGID_4_);}
	.st55{fill:url(#SVGID_5_);}
	.st56{fill:url(#SVGID_6_);}
	.st57{fill:url(#SVGID_7_);}
	.st58{fill:url(#SVGID_8_);}
	.st59{fill:url(#SVGID_9_);}
	.st60{fill:url(#SVGID_10_);}
	.st61{fill:url(#SVGID_11_);}
	.st62{fill:url(#SVGID_12_);}
	.st63{fill:url(#SVGID_13_);}
	.st64{fill:url(#SVGID_14_);}
	.st65{fill:url(#SVGID_15_);}
	.st66{fill:url(#SVGID_16_);}
	.st67{fill:url(#SVGID_17_);}
	.st68{fill:url(#SVGID_18_);}
	.st69{fill:none;stroke:url(#SVGID_19_);stroke-width:3;stroke-miterlimit:10;}
	.st70{fill:url(#SVGID_20_);}
	.st71{fill:none;stroke:url(#SVGID_21_);stroke-width:3;stroke-miterlimit:10;}
	.st72{fill:url(#SVGID_22_);}
	.st73{fill:none;stroke:url(#SVGID_23_);stroke-width:3;stroke-miterlimit:10;}
	.st74{fill:url(#SVGID_24_);}
	.st75{fill:none;stroke:url(#SVGID_25_);stroke-width:3;stroke-miterlimit:10;}
</style>
<linearGradient id="SVGID_1_" gradientUnits="userSpaceOnUse" x1="-27.1004" y1="-17211.3379" x2="1172.6804" y2="-17211.3379" gradientTransform="matrix(1 0 0 -1 0 -16896)">
	<stop  offset="0" style="stop-color:#7F00FF"/>
	<stop  offset="1" style="stop-color:#3F00FC"/>
</linearGradient>
<polyline class="st0" points="816.1,212.7 1166.7,416.7 886.1,580.7 417.4,309.3 332.7,357.3 86.1,212.7 171.4,162 -25.6,49.1 "/>
<linearGradient id="XMLID_2_" gradientUnits="userSpaceOnUse" x1="178.6289" y1="-16733.3145" x2="283.6868" y2="-16733.3145" gradientTransform="matrix(1 0 0 -1 0 -16896)">
	<stop  offset="0" style="stop-color:#7F00FF"/>
	<stop  offset="1" style="stop-color:#3F00FC"/>
</linearGradient>
<line id="XMLID_154_" class="st1" x1="282.2" y1="-132.4" x2="180.2" y2="-193"/>
<linearGradient id="XMLID_3_" gradientUnits="userSpaceOnUse" x1="29.0854" y1="-16824.9355" x2="275.2369" y2="-16824.9355" gradientTransform="matrix(1 0 0 -1 0 -16896)">
	<stop  offset="0" style="stop-color:#7F00FF"/>
	<stop  offset="1" style="stop-color:#3F00FC"/>
</linearGradient>
<polyline id="XMLID_74_" class="st2" points="273.6,-39.6 177.6,-101.6 69.6,-47.6 30.6,-70.6 "/>
<linearGradient id="XMLID_4_" gradientUnits="userSpaceOnUse" x1="-441.1906" y1="-17157.9863" x2="649.2159" y2="-17157.9863" gradientTransform="matrix(1 0 0 -1 0 -16896)">
	<stop  offset="0" style="stop-color:#7F00FF"/>
	<stop  offset="1" style="stop-color:#3F00FC"/>
</linearGradient>
<polyline id="XMLID_12_" class="st3" points="647.6,92.2 96.7,430.9 -439.7,120.6 "/>
<polygon id="XMLID_121_" class="st4" points="713.4,-194.9 1189.6,101.4 716.6,397.8 240.4,101.5 "/>
<g id="XMLID_172_">
	
		<linearGradient id="XMLID_5_" gradientUnits="userSpaceOnUse" x1="605.8159" y1="-16869.3945" x2="824.2619" y2="-16054.1426" gradientTransform="matrix(1 0 0 -1 0 -16896)">
		<stop  offset="0" style="stop-color:#4F3E90"/>
		<stop  offset="1" style="stop-color:#171A31"/>
	</linearGradient>
	<polygon id="XMLID_182_" class="st5" points="483.9,-737.4 714.3,-871.3 946.2,-737.5 946.2,-131 715.8,2.9 483.9,-130.9 	"/>
	
		<linearGradient id="XMLID_6_" gradientUnits="userSpaceOnUse" x1="681.6326" y1="-16283.1758" x2="748.4451" y2="-16033.8281" gradientTransform="matrix(1 0 0 -1 0 -16896)">
		<stop  offset="0" style="stop-color:#4F3E90"/>
		<stop  offset="1" style="stop-color:#171A31"/>
	</linearGradient>
	<polygon id="XMLID_181_" class="st6" points="714.3,-871.3 946.2,-737.5 715.8,-603.7 483.9,-737.4 	"/>
	<g id="XMLID_173_">
		
			<linearGradient id="XMLID_7_" gradientUnits="userSpaceOnUse" x1="697.6926" y1="-16212.1797" x2="732.3093" y2="-16082.9883" gradientTransform="matrix(1 0 0 -1 0 -16896)">
			<stop  offset="0" style="stop-color:#4F3E90"/>
			<stop  offset="1" style="stop-color:#171A31"/>
		</linearGradient>
		<polygon id="XMLID_178_" class="st7" points="714.6,-817.8 834.7,-748.4 715.4,-679.1 595.2,-748.4 		"/>
		
			<linearGradient id="XMLID_8_" gradientUnits="userSpaceOnUse" x1="696.4359" y1="-16223.3887" x2="724.6805" y2="-16117.9785" gradientTransform="matrix(1 0 0 -1 0 -16896)">
			<stop  offset="0" style="stop-color:#463780"/>
			<stop  offset="0.1433" style="stop-color:#382E68"/>
			<stop  offset="0.3308" style="stop-color:#292550"/>
			<stop  offset="0.5289" style="stop-color:#1F1F3F"/>
			<stop  offset="0.7426" style="stop-color:#191B34"/>
			<stop  offset="1" style="stop-color:#171A31"/>
		</linearGradient>
		<path id="XMLID_175_" class="st8" d="M711.1-681.3l-115.7-67.2v11L711.1-669c2.5,1.5,5.5,1.5,8,0l115.7-67.2v-12.4l-115.7,67.2
			C716.6-679.9,713.6-679.9,711.1-681.3z"/>
		
			<linearGradient id="XMLID_9_" gradientUnits="userSpaceOnUse" x1="594.7474" y1="-16181.7148" x2="835.2499" y2="-16181.7148" gradientTransform="matrix(1 0 0 -1 0 -16896)">
			<stop  offset="0" style="stop-color:#00ACE9"/>
			<stop  offset="1" style="stop-color:#007541"/>
		</linearGradient>
		<path id="XMLID_174_" class="st9" d="M595.2-748.4l116.3,67.1c2.4,1.4,5.4,1.4,7.8,0l115.4-67.1"/>
	</g>
</g>
<g id="XMLID_413_">
	
		<linearGradient id="XMLID_10_" gradientUnits="userSpaceOnUse" x1="380.1357" y1="-17027.0059" x2="521.4241" y2="-16499.7109" gradientTransform="matrix(1 0 0 -1 0 -16896)">
		<stop  offset="0" style="stop-color:#4F3E90"/>
		<stop  offset="1" style="stop-color:#171A31"/>
	</linearGradient>
	<polygon id="XMLID_185_" class="st10" points="220.1,16.6 220.1,-281.8 450,-415.4 681.4,-281.9 681.4,16.6 451.6,150.1 	"/>
	<g id="XMLID_315_">
		
			<linearGradient id="XMLID_11_" gradientUnits="userSpaceOnUse" x1="416.584" y1="-16691.9922" x2="483.3837" y2="-16442.6934" gradientTransform="matrix(1 0 0 -1 0 -16896)">
			<stop  offset="0" style="stop-color:#4F3E90"/>
			<stop  offset="1" style="stop-color:#171A31"/>
		</linearGradient>
		<polygon id="XMLID_382_" class="st11" points="449.2,-462.5 681.1,-328.7 450.8,-194.8 218.9,-328.6 		"/>
		
			<linearGradient id="XMLID_13_" gradientUnits="userSpaceOnUse" x1="320.238" y1="-16711.3633" x2="349.4309" y2="-16602.4141" gradientTransform="matrix(1 0 0 -1 0 -16896)">
			<stop  offset="0" style="stop-color:#7F00FF"/>
			<stop  offset="1" style="stop-color:#3F00FC"/>
		</linearGradient>
		<polygon id="XMLID_381_" class="st12" points="218.9,-328.6 218.7,-283.5 450.8,-149.7 450.8,-194.8 		"/>
		
			<linearGradient id="XMLID_14_" gradientUnits="userSpaceOnUse" x1="565.9637" y1="-16746.3574" x2="565.9637" y2="-16567.4199" gradientTransform="matrix(1 0 0 -1 0 -16896)">
			<stop  offset="0" style="stop-color:#463780"/>
			<stop  offset="0.1433" style="stop-color:#382E68"/>
			<stop  offset="0.3308" style="stop-color:#292550"/>
			<stop  offset="0.5289" style="stop-color:#1F1F3F"/>
			<stop  offset="0.7426" style="stop-color:#191B34"/>
			<stop  offset="1" style="stop-color:#171A31"/>
		</linearGradient>
		<polygon id="XMLID_318_" class="st13" points="450.8,-149.6 450.8,-194.8 681.2,-328.6 681,-283.4 		"/>
	</g>
	<g id="XMLID_265_">
		
			<linearGradient id="XMLID_15_" gradientUnits="userSpaceOnUse" x1="416.584" y1="-16604.9844" x2="483.3837" y2="-16355.6836" gradientTransform="matrix(1 0 0 -1 0 -16896)">
			<stop  offset="0" style="stop-color:#4F3E90"/>
			<stop  offset="1" style="stop-color:#171A31"/>
		</linearGradient>
		<polygon id="XMLID_312_" class="st14" points="449.2,-549.5 681.1,-415.7 450.8,-281.9 218.9,-415.6 		"/>
		
			<linearGradient id="XMLID_16_" gradientUnits="userSpaceOnUse" x1="320.238" y1="-16624.3555" x2="349.4309" y2="-16515.4063" gradientTransform="matrix(1 0 0 -1 0 -16896)">
			<stop  offset="0" style="stop-color:#7F00FF"/>
			<stop  offset="1" style="stop-color:#3F00FC"/>
		</linearGradient>
		<polygon id="XMLID_307_" class="st15" points="218.9,-415.6 218.7,-370.5 450.8,-236.7 450.8,-281.8 		"/>
		
			<linearGradient id="XMLID_17_" gradientUnits="userSpaceOnUse" x1="565.9637" y1="-16659.3496" x2="565.9637" y2="-16480.4121" gradientTransform="matrix(1 0 0 -1 0 -16896)">
			<stop  offset="0" style="stop-color:#463780"/>
			<stop  offset="0.1433" style="stop-color:#382E68"/>
			<stop  offset="0.3308" style="stop-color:#292550"/>
			<stop  offset="0.5289" style="stop-color:#1F1F3F"/>
			<stop  offset="0.7426" style="stop-color:#191B34"/>
			<stop  offset="1" style="stop-color:#171A31"/>
		</linearGradient>
		<polygon id="XMLID_291_" class="st16" points="450.8,-236.7 450.8,-281.8 681.2,-415.6 681,-370.5 		"/>
	</g>
	<g id="XMLID_189_">
		
			<linearGradient id="XMLID_18_" gradientUnits="userSpaceOnUse" x1="416.584" y1="-16517.9746" x2="483.3837" y2="-16268.6758" gradientTransform="matrix(1 0 0 -1 0 -16896)">
			<stop  offset="0" style="stop-color:#4F3E90"/>
			<stop  offset="1" style="stop-color:#171A31"/>
		</linearGradient>
		<polygon id="XMLID_246_" class="st17" points="449.2,-636.5 681.1,-502.7 450.8,-368.9 218.9,-502.6 		"/>
		
			<linearGradient id="XMLID_19_" gradientUnits="userSpaceOnUse" x1="320.238" y1="-16537.3457" x2="349.4309" y2="-16428.3965" gradientTransform="matrix(1 0 0 -1 0 -16896)">
			<stop  offset="0" style="stop-color:#7F00FF"/>
			<stop  offset="1" style="stop-color:#3F00FC"/>
		</linearGradient>
		<polygon id="XMLID_245_" class="st18" points="218.9,-502.6 218.7,-457.5 450.8,-323.7 450.8,-368.8 		"/>
		
			<linearGradient id="XMLID_20_" gradientUnits="userSpaceOnUse" x1="565.9637" y1="-16572.3398" x2="565.9637" y2="-16393.4023" gradientTransform="matrix(1 0 0 -1 0 -16896)">
			<stop  offset="0" style="stop-color:#463780"/>
			<stop  offset="0.1433" style="stop-color:#382E68"/>
			<stop  offset="0.3308" style="stop-color:#292550"/>
			<stop  offset="0.5289" style="stop-color:#1F1F3F"/>
			<stop  offset="0.7426" style="stop-color:#191B34"/>
			<stop  offset="1" style="stop-color:#171A31"/>
		</linearGradient>
		<polygon id="XMLID_229_" class="st19" points="450.8,-323.7 450.8,-368.8 681.2,-502.6 681,-457.5 		"/>
	</g>
	<g id="XMLID_160_">
		
			<linearGradient id="XMLID_21_" gradientUnits="userSpaceOnUse" x1="416.584" y1="-16430.9668" x2="483.3837" y2="-16181.667" gradientTransform="matrix(1 0 0 -1 0 -16896)">
			<stop  offset="0" style="stop-color:#4F3E90"/>
			<stop  offset="1" style="stop-color:#171A31"/>
		</linearGradient>
		<polygon id="XMLID_163_" class="st20" points="449.2,-723.5 681.1,-589.7 450.8,-455.9 218.9,-589.6 		"/>
		
			<linearGradient id="XMLID_22_" gradientUnits="userSpaceOnUse" x1="320.238" y1="-16450.3379" x2="349.4309" y2="-16341.3887" gradientTransform="matrix(1 0 0 -1 0 -16896)">
			<stop  offset="0" style="stop-color:#7F00FF"/>
			<stop  offset="1" style="stop-color:#3F00FC"/>
		</linearGradient>
		<polygon id="XMLID_162_" class="st21" points="218.9,-589.6 218.7,-544.5 450.8,-410.7 450.8,-455.8 		"/>
		
			<linearGradient id="XMLID_23_" gradientUnits="userSpaceOnUse" x1="565.9637" y1="-16485.332" x2="565.9637" y2="-16306.3945" gradientTransform="matrix(1 0 0 -1 0 -16896)">
			<stop  offset="0" style="stop-color:#463780"/>
			<stop  offset="0.1433" style="stop-color:#382E68"/>
			<stop  offset="0.3308" style="stop-color:#292550"/>
			<stop  offset="0.5289" style="stop-color:#1F1F3F"/>
			<stop  offset="0.7426" style="stop-color:#191B34"/>
			<stop  offset="1" style="stop-color:#171A31"/>
		</linearGradient>
		<polygon id="XMLID_161_" class="st22" points="450.8,-410.7 450.8,-455.8 681.2,-589.6 681,-544.5 		"/>
	</g>
	
		<linearGradient id="XMLID_24_" gradientUnits="userSpaceOnUse" x1="417.3736" y1="-16430.4492" x2="484.1861" y2="-16181.1025" gradientTransform="matrix(1 0 0 -1 0 -16896)">
		<stop  offset="0" style="stop-color:#4F3E90"/>
		<stop  offset="1" style="stop-color:#171A31"/>
	</linearGradient>
	<polygon id="XMLID_212_" class="st23" points="450,-724.1 681.9,-590.2 451.6,-456.4 219.6,-590.2 	"/>
	<g id="XMLID_190_">
		
			<linearGradient id="XMLID_25_" gradientUnits="userSpaceOnUse" x1="433.4336" y1="-16359.4541" x2="468.0503" y2="-16230.2627" gradientTransform="matrix(1 0 0 -1 0 -16896)">
			<stop  offset="0" style="stop-color:#4F3E90"/>
			<stop  offset="1" style="stop-color:#171A31"/>
		</linearGradient>
		<polygon id="XMLID_210_" class="st24" points="450.3,-670.5 570.5,-601.1 451.2,-531.8 331,-601.1 		"/>
		
			<linearGradient id="XMLID_26_" gradientUnits="userSpaceOnUse" x1="432.1769" y1="-16370.6631" x2="460.4215" y2="-16265.2529" gradientTransform="matrix(1 0 0 -1 0 -16896)">
			<stop  offset="0" style="stop-color:#463780"/>
			<stop  offset="0.1433" style="stop-color:#382E68"/>
			<stop  offset="0.3308" style="stop-color:#292550"/>
			<stop  offset="0.5289" style="stop-color:#1F1F3F"/>
			<stop  offset="0.7426" style="stop-color:#191B34"/>
			<stop  offset="1" style="stop-color:#171A31"/>
		</linearGradient>
		<path id="XMLID_208_" class="st25" d="M446.9-534.1l-115.7-67.2v11l115.7,68.5c2.5,1.5,5.5,1.5,8,0l115.7-67.2v-12.4l-115.7,67.2
			C452.4-532.6,449.3-532.6,446.9-534.1z"/>
		
			<linearGradient id="XMLID_27_" gradientUnits="userSpaceOnUse" x1="330.4884" y1="-16328.9893" x2="570.9908" y2="-16328.9893" gradientTransform="matrix(1 0 0 -1 0 -16896)">
			<stop  offset="0" style="stop-color:#00ACE9"/>
			<stop  offset="1" style="stop-color:#007541"/>
		</linearGradient>
		<path id="XMLID_191_" class="st26" d="M331-601.1l116.3,67.1c2.4,1.4,5.4,1.4,7.8,0l115.4-67.1"/>
	</g>
</g>
<linearGradient id="XMLID_28_" gradientUnits="userSpaceOnUse" x1="860.9834" y1="-17018.1367" x2="1079.4294" y2="-16202.8838" gradientTransform="matrix(1 0 0 -1 0 -16896)">
	<stop  offset="0" style="stop-color:#4F3E90"/>
	<stop  offset="1" style="stop-color:#171A31"/>
</linearGradient>
<polygon id="XMLID_171_" class="st27" points="739.1,-588.7 969.4,-722.6 1201.3,-588.8 1201.3,17.8 971,151.6 739.1,17.8 "/>
<linearGradient id="XMLID_29_" gradientUnits="userSpaceOnUse" x1="936.8002" y1="-16431.916" x2="1003.6127" y2="-16182.5693" gradientTransform="matrix(1 0 0 -1 0 -16896)">
	<stop  offset="0" style="stop-color:#4F3E90"/>
	<stop  offset="1" style="stop-color:#171A31"/>
</linearGradient>
<polygon id="XMLID_170_" class="st28" points="969.4,-722.6 1201.3,-588.8 971,-454.9 739.1,-588.7 "/>
<linearGradient id="XMLID_30_" gradientUnits="userSpaceOnUse" x1="605.8159" y1="-17166.877" x2="824.2619" y2="-16351.626" gradientTransform="matrix(1 0 0 -1 0 -16896)">
	<stop  offset="0" style="stop-color:#4F3E90"/>
	<stop  offset="1" style="stop-color:#171A31"/>
</linearGradient>
<polygon id="XMLID_52_" class="st29" points="483.9,-440 714.3,-573.8 946.2,-440 946.2,166.5 715.8,300.4 483.9,166.6 "/>
<linearGradient id="XMLID_31_" gradientUnits="userSpaceOnUse" x1="1026.5189" y1="-16187.8066" x2="1031.6287" y2="-16187.8066" gradientTransform="matrix(1 0 0 -1 0 -16896)">
	<stop  offset="9.817236e-008" style="stop-color:#FFFFFF;stop-opacity:0.6"/>
	<stop  offset="1" style="stop-color:#FFFFFF"/>
</linearGradient>
<circle id="XMLID_214_" class="st30" cx="1029.1" cy="-708.2" r="2.6"/>
<linearGradient id="XMLID_32_" gradientUnits="userSpaceOnUse" x1="1006.134" y1="-16150.3232" x2="1011.6093" y2="-16150.3232" gradientTransform="matrix(1 0 0 -1 0 -16896)">
	<stop  offset="9.817236e-008" style="stop-color:#FFFFFF;stop-opacity:0.6"/>
	<stop  offset="1" style="stop-color:#FFFFFF"/>
</linearGradient>
<circle id="XMLID_358_" class="st31" cx="1008.9" cy="-745.7" r="2.7"/>
<linearGradient id="XMLID_33_" gradientUnits="userSpaceOnUse" x1="681.6326" y1="-16580.6582" x2="748.4451" y2="-16331.3105" gradientTransform="matrix(1 0 0 -1 0 -16896)">
	<stop  offset="0" style="stop-color:#4F3E90"/>
	<stop  offset="1" style="stop-color:#171A31"/>
</linearGradient>
<polygon id="XMLID_92_" class="st32" points="714.3,-573.8 946.2,-440 715.8,-306.2 483.9,-440 "/>
<g id="XMLID_111_">
	
		<linearGradient id="XMLID_34_" gradientUnits="userSpaceOnUse" x1="953.658" y1="-16350.4287" x2="986.7857" y2="-16226.7939" gradientTransform="matrix(1 0 0 -1 0 -16896)">
		<stop  offset="0" style="stop-color:#4F3E90"/>
		<stop  offset="1" style="stop-color:#171A31"/>
	</linearGradient>
	<polygon id="XMLID_115_" class="st33" points="969.8,-673.7 1084.8,-607.4 970.6,-541 855.6,-607.4 	"/>
	
		<linearGradient id="XMLID_35_" gradientUnits="userSpaceOnUse" x1="905.8775" y1="-16360.0352" x2="920.355" y2="-16306.0039" gradientTransform="matrix(1 0 0 -1 0 -16896)">
		<stop  offset="0" style="stop-color:#7F00FF"/>
		<stop  offset="1" style="stop-color:#3F00FC"/>
	</linearGradient>
	<polygon id="XMLID_113_" class="st34" points="855.6,-607.3 855.5,-585 970.6,-518.6 970.6,-541 	"/>
	
		<linearGradient id="XMLID_36_" gradientUnits="userSpaceOnUse" x1="1027.7393" y1="-16377.3896" x2="1027.7393" y2="-16288.6504" gradientTransform="matrix(1 0 0 -1 0 -16896)">
		<stop  offset="0" style="stop-color:#463780"/>
		<stop  offset="0.1433" style="stop-color:#382E68"/>
		<stop  offset="0.3308" style="stop-color:#292550"/>
		<stop  offset="0.5289" style="stop-color:#1F1F3F"/>
		<stop  offset="0.7426" style="stop-color:#191B34"/>
		<stop  offset="1" style="stop-color:#171A31"/>
	</linearGradient>
	<polygon id="XMLID_112_" class="st35" points="970.6,-518.6 970.6,-541 1084.9,-607.3 1084.8,-585 	"/>
</g>
<linearGradient id="XMLID_37_" gradientUnits="userSpaceOnUse" x1="960.7123" y1="-16323.8428" x2="980.5201" y2="-16249.9189" gradientTransform="matrix(1 0 0 -1 0 -16896)">
	<stop  offset="0" style="stop-color:#7F00FF;stop-opacity:0.2"/>
	<stop  offset="1" style="stop-color:#3F00FC"/>
</linearGradient>
<polygon id="XMLID_110_" class="st36" points="970.4,-648.8 1039.1,-609.1 970.9,-569.4 902.1,-609.1 "/>
<g id="XMLID_97_">
	<defs>
		<polygon id="XMLID_98_" points="970.4,-648.8 1039.1,-609.1 970.9,-569.4 902.1,-609.1 		"/>
	</defs>
	<clipPath id="XMLID_38_">
		<use xlink:href="#XMLID_98_"  style="overflow:visible;"/>
	</clipPath>
	
		<linearGradient id="XMLID_41_" gradientUnits="userSpaceOnUse" x1="960.6779" y1="-16262.2773" x2="980.5476" y2="-16336.4326" gradientTransform="matrix(1 0 0 -1 0 -16896)">
		<stop  offset="0" style="stop-color:#7F00FF;stop-opacity:0.7"/>
		<stop  offset="1" style="stop-color:#3F00FC;stop-opacity:0.6"/>
	</linearGradient>
	<polygon id="XMLID_109_" class="st37" points="970.4,-636.3 1039.1,-596.7 970.9,-557 902.1,-596.6 	"/>
	
		<linearGradient id="XMLID_42_" gradientUnits="userSpaceOnUse" x1="960.6779" y1="-16274.5176" x2="980.5476" y2="-16348.6719" gradientTransform="matrix(1 0 0 -1 0 -16896)">
		<stop  offset="0" style="stop-color:#7F00FF;stop-opacity:0.7"/>
		<stop  offset="1" style="stop-color:#3F00FC;stop-opacity:0.6"/>
	</linearGradient>
	<polygon id="XMLID_108_" class="st38" points="970.4,-624.1 1039.1,-584.4 970.9,-544.7 902.1,-584.4 	"/>
	
		<linearGradient id="XMLID_43_" gradientUnits="userSpaceOnUse" x1="960.6779" y1="-16286.7578" x2="980.5476" y2="-16360.9121" gradientTransform="matrix(1 0 0 -1 0 -16896)">
		<stop  offset="0" style="stop-color:#7F00FF;stop-opacity:0.7"/>
		<stop  offset="1" style="stop-color:#3F00FC;stop-opacity:0.6"/>
	</linearGradient>
	<polygon id="XMLID_107_" class="st39" points="970.4,-611.8 1039.1,-572.2 970.9,-532.5 902.1,-572.1 	"/>
	
		<linearGradient id="XMLID_44_" gradientUnits="userSpaceOnUse" x1="960.6779" y1="-16298.998" x2="980.5476" y2="-16373.1523" gradientTransform="matrix(1 0 0 -1 0 -16896)">
		<stop  offset="0" style="stop-color:#7F00FF;stop-opacity:0.7"/>
		<stop  offset="1" style="stop-color:#3F00FC;stop-opacity:0.6"/>
	</linearGradient>
	<polygon id="XMLID_105_" class="st40" points="970.4,-599.6 1039.1,-559.9 970.9,-520.2 902.1,-559.9 	"/>
	
		<linearGradient id="XMLID_45_" gradientUnits="userSpaceOnUse" x1="960.6779" y1="-16311.2383" x2="980.5476" y2="-16385.3926" gradientTransform="matrix(1 0 0 -1 0 -16896)">
		<stop  offset="0" style="stop-color:#7F00FF;stop-opacity:0.7"/>
		<stop  offset="1" style="stop-color:#3F00FC;stop-opacity:0.6"/>
	</linearGradient>
	<polygon id="XMLID_104_" class="st41" points="970.4,-587.4 1039.1,-547.7 970.9,-508 902.1,-547.7 	"/>
	
		<linearGradient id="XMLID_46_" gradientUnits="userSpaceOnUse" x1="960.6779" y1="-16323.4775" x2="980.5476" y2="-16397.6328" gradientTransform="matrix(1 0 0 -1 0 -16896)">
		<stop  offset="0" style="stop-color:#7F00FF;stop-opacity:0.7"/>
		<stop  offset="1" style="stop-color:#3F00FC;stop-opacity:0.6"/>
	</linearGradient>
	<polygon id="XMLID_103_" class="st42" points="970.4,-575.1 1039.1,-535.4 970.9,-495.8 902.1,-535.4 	"/>
	
		<linearGradient id="XMLID_47_" gradientUnits="userSpaceOnUse" x1="960.6779" y1="-16335.7178" x2="980.5476" y2="-16409.873" gradientTransform="matrix(1 0 0 -1 0 -16896)">
		<stop  offset="0" style="stop-color:#7F00FF;stop-opacity:0.7"/>
		<stop  offset="1" style="stop-color:#3F00FC;stop-opacity:0.6"/>
	</linearGradient>
	<polygon id="XMLID_101_" class="st43" points="970.4,-562.9 1039.1,-523.2 970.9,-483.5 902.1,-523.2 	"/>
	
		<linearGradient id="XMLID_51_" gradientUnits="userSpaceOnUse" x1="960.6779" y1="-16347.958" x2="980.5476" y2="-16422.1133" gradientTransform="matrix(1 0 0 -1 0 -16896)">
		<stop  offset="0" style="stop-color:#7F00FF;stop-opacity:0.7"/>
		<stop  offset="1" style="stop-color:#3F00FC;stop-opacity:0.6"/>
	</linearGradient>
	<polygon id="XMLID_100_" class="st44" points="970.4,-550.6 1039.1,-511 970.9,-471.3 902.1,-510.9 	"/>
</g>
<linearGradient id="XMLID_53_" gradientUnits="userSpaceOnUse" x1="973.7979" y1="-16244.1836" x2="977.338" y2="-16244.1836" gradientTransform="matrix(1 0 0 -1 0 -16896)">
	<stop  offset="9.817236e-008" style="stop-color:#FFFFFF;stop-opacity:0.6"/>
	<stop  offset="1" style="stop-color:#FFFFFF"/>
</linearGradient>
<circle id="XMLID_93_" class="st45" cx="975.6" cy="-651.8" r="1.8"/>
<linearGradient id="XMLID_54_" gradientUnits="userSpaceOnUse" x1="524.3046" y1="-16544.1953" x2="675.4302" y2="-17108.2051" gradientTransform="matrix(1 0 0 -1 0 -16896)">
	<stop  offset="0" style="stop-color:#7F00FF"/>
	<stop  offset="1" style="stop-color:#3F00FC"/>
</linearGradient>
<polygon id="XMLID_252_" class="st46" points="512.5,-348.6 687.2,-247.9 687.2,209 512.5,108.3 "/>
<linearGradient id="XMLID_55_" gradientUnits="userSpaceOnUse" x1="664.3022" y1="-16423.3438" x2="946.1572" y2="-16423.3438" gradientTransform="matrix(1 0 0 -1 0 -16896)">
	<stop  offset="0" style="stop-color:#463780"/>
	<stop  offset="0.1433" style="stop-color:#382E68"/>
	<stop  offset="0.3308" style="stop-color:#292550"/>
	<stop  offset="0.5289" style="stop-color:#1F1F3F"/>
	<stop  offset="0.7426" style="stop-color:#191B34"/>
	<stop  offset="1" style="stop-color:#171A31"/>
</linearGradient>
<polygon id="XMLID_693_" class="st47" points="719.1,-371.5 847.7,-382.8 946.2,-440 714.3,-573.8 664.3,-491 "/>
<g id="XMLID_40_">
	
		<linearGradient id="XMLID_56_" gradientUnits="userSpaceOnUse" x1="697.6926" y1="-16509.6621" x2="732.3093" y2="-16380.4717" gradientTransform="matrix(1 0 0 -1 0 -16896)">
		<stop  offset="0" style="stop-color:#4F3E90"/>
		<stop  offset="1" style="stop-color:#171A31"/>
	</linearGradient>
	<polygon id="XMLID_50_" class="st48" points="714.6,-520.3 834.7,-450.9 715.4,-381.6 595.2,-450.9 	"/>
	
		<linearGradient id="XMLID_57_" gradientUnits="userSpaceOnUse" x1="696.4359" y1="-16520.8711" x2="724.6805" y2="-16415.4609" gradientTransform="matrix(1 0 0 -1 0 -16896)">
		<stop  offset="0" style="stop-color:#463780"/>
		<stop  offset="0.1433" style="stop-color:#382E68"/>
		<stop  offset="0.3308" style="stop-color:#292550"/>
		<stop  offset="0.5289" style="stop-color:#1F1F3F"/>
		<stop  offset="0.7426" style="stop-color:#191B34"/>
		<stop  offset="1" style="stop-color:#171A31"/>
	</linearGradient>
	<path id="XMLID_49_" class="st49" d="M711.1-383.8L595.4-451v11l115.7,68.5c2.5,1.5,5.5,1.5,8,0l115.7-67.2V-451l-115.7,67.2
		C716.6-382.4,713.6-382.4,711.1-383.8z"/>
	
		<linearGradient id="XMLID_58_" gradientUnits="userSpaceOnUse" x1="594.7474" y1="-16479.1973" x2="835.2499" y2="-16479.1973" gradientTransform="matrix(1 0 0 -1 0 -16896)">
		<stop  offset="0" style="stop-color:#00ACE9"/>
		<stop  offset="1" style="stop-color:#007541"/>
	</linearGradient>
	<path id="XMLID_48_" class="st50" d="M595.2-450.9l116.3,67.1c2.4,1.4,5.4,1.4,7.8,0l115.4-67.1"/>
</g>
<linearGradient id="XMLID_59_" gradientUnits="userSpaceOnUse" x1="901.2318" y1="-16306.7031" x2="1005.6846" y2="-15916.8799" gradientTransform="matrix(1 0 0 -1 0 -16896)">
	<stop  offset="0" style="stop-color:#FFFFFF;stop-opacity:0"/>
	<stop  offset="1" style="stop-color:#FFFFFF;stop-opacity:0.12"/>
</linearGradient>
<polygon id="XMLID_39_" class="st51" points="901.7,-610.4 859.2,-924.4 969.8,-988.7 1081.2,-924.5 1038.7,-610.4 970.4,-570.8 "/>
<g>
	
		<linearGradient id="SVGID_2_" gradientUnits="userSpaceOnUse" x1="764.6953" y1="-16600.8438" x2="904.7995" y2="-16600.8438" gradientTransform="matrix(1 0 0 -1 0 -16896)">
		<stop  offset="0" style="stop-color:#4F3E90"/>
		<stop  offset="1" style="stop-color:#171A31"/>
	</linearGradient>
	<polygon class="st52" points="764.7,-258.1 764.7,-251.3 904.8,-332.1 904.8,-339 	"/>
	
		<linearGradient id="SVGID_3_" gradientUnits="userSpaceOnUse" x1="764.6953" y1="-16615.1035" x2="904.7995" y2="-16615.1035" gradientTransform="matrix(1 0 0 -1 0 -16896)">
		<stop  offset="0" style="stop-color:#4F3E90"/>
		<stop  offset="1" style="stop-color:#171A31"/>
	</linearGradient>
	<polygon class="st53" points="764.7,-243.8 764.7,-237.1 904.8,-317.8 904.8,-324.7 	"/>
	
		<linearGradient id="SVGID_4_" gradientUnits="userSpaceOnUse" x1="764.6953" y1="-16629.3633" x2="904.7995" y2="-16629.3633" gradientTransform="matrix(1 0 0 -1 0 -16896)">
		<stop  offset="0" style="stop-color:#4F3E90"/>
		<stop  offset="1" style="stop-color:#171A31"/>
	</linearGradient>
	<polygon class="st54" points="764.7,-229.6 764.7,-222.8 904.8,-303.6 904.8,-310.5 	"/>
	
		<linearGradient id="SVGID_5_" gradientUnits="userSpaceOnUse" x1="764.6953" y1="-16643.623" x2="904.7995" y2="-16643.623" gradientTransform="matrix(1 0 0 -1 0 -16896)">
		<stop  offset="0" style="stop-color:#4F3E90"/>
		<stop  offset="1" style="stop-color:#171A31"/>
	</linearGradient>
	<polygon class="st55" points="764.7,-215.3 764.7,-208.6 904.8,-289.3 904.8,-296.2 	"/>
	
		<linearGradient id="SVGID_6_" gradientUnits="userSpaceOnUse" x1="764.6953" y1="-16657.8828" x2="904.7995" y2="-16657.8828" gradientTransform="matrix(1 0 0 -1 0 -16896)">
		<stop  offset="0" style="stop-color:#4F3E90"/>
		<stop  offset="1" style="stop-color:#171A31"/>
	</linearGradient>
	<polygon class="st56" points="764.7,-201 764.7,-194.3 904.8,-275.1 904.8,-281.9 	"/>
	
		<linearGradient id="SVGID_7_" gradientUnits="userSpaceOnUse" x1="764.6953" y1="-16672.1426" x2="904.7995" y2="-16672.1426" gradientTransform="matrix(1 0 0 -1 0 -16896)">
		<stop  offset="0" style="stop-color:#4F3E90"/>
		<stop  offset="1" style="stop-color:#171A31"/>
	</linearGradient>
	<polygon class="st57" points="764.7,-186.8 764.7,-180 904.8,-260.8 904.8,-267.7 	"/>
	
		<linearGradient id="SVGID_8_" gradientUnits="userSpaceOnUse" x1="764.6953" y1="-16686.4043" x2="904.7995" y2="-16686.4043" gradientTransform="matrix(1 0 0 -1 0 -16896)">
		<stop  offset="0" style="stop-color:#4F3E90"/>
		<stop  offset="1" style="stop-color:#171A31"/>
	</linearGradient>
	<polygon class="st58" points="764.7,-172.5 764.7,-165.8 904.8,-246.5 904.8,-253.4 	"/>
	
		<linearGradient id="SVGID_9_" gradientUnits="userSpaceOnUse" x1="764.6953" y1="-16700.6641" x2="904.7995" y2="-16700.6641" gradientTransform="matrix(1 0 0 -1 0 -16896)">
		<stop  offset="0" style="stop-color:#4F3E90"/>
		<stop  offset="1" style="stop-color:#171A31"/>
	</linearGradient>
	<polygon class="st59" points="764.7,-158.3 764.7,-151.5 904.8,-232.3 904.8,-239.2 	"/>
</g>
<g>
	
		<linearGradient id="SVGID_10_" gradientUnits="userSpaceOnUse" x1="764.6953" y1="-16947.5078" x2="904.7995" y2="-16947.5078" gradientTransform="matrix(1 0 0 -1 0 -16896)">
		<stop  offset="0" style="stop-color:#4F3E90"/>
		<stop  offset="1" style="stop-color:#171A31"/>
	</linearGradient>
	<polygon class="st60" points="764.7,88.6 764.7,95.3 904.8,14.6 904.8,7.7 	"/>
	
		<linearGradient id="SVGID_11_" gradientUnits="userSpaceOnUse" x1="764.6953" y1="-16961.7676" x2="904.7995" y2="-16961.7676" gradientTransform="matrix(1 0 0 -1 0 -16896)">
		<stop  offset="0" style="stop-color:#4F3E90"/>
		<stop  offset="1" style="stop-color:#171A31"/>
	</linearGradient>
	<polygon class="st61" points="764.7,102.8 764.7,109.6 904.8,28.8 904.8,21.9 	"/>
	
		<linearGradient id="SVGID_12_" gradientUnits="userSpaceOnUse" x1="764.6953" y1="-16976.0273" x2="904.7995" y2="-16976.0273" gradientTransform="matrix(1 0 0 -1 0 -16896)">
		<stop  offset="0" style="stop-color:#4F3E90"/>
		<stop  offset="1" style="stop-color:#171A31"/>
	</linearGradient>
	<polygon class="st62" points="764.7,117.1 764.7,123.9 904.8,43.1 904.8,36.2 	"/>
	
		<linearGradient id="SVGID_13_" gradientUnits="userSpaceOnUse" x1="764.6953" y1="-16990.2871" x2="904.7995" y2="-16990.2871" gradientTransform="matrix(1 0 0 -1 0 -16896)">
		<stop  offset="0" style="stop-color:#4F3E90"/>
		<stop  offset="1" style="stop-color:#171A31"/>
	</linearGradient>
	<polygon class="st63" points="764.7,131.4 764.7,138.1 904.8,57.3 904.8,50.5 	"/>
	
		<linearGradient id="SVGID_14_" gradientUnits="userSpaceOnUse" x1="764.6953" y1="-17004.5469" x2="904.7995" y2="-17004.5469" gradientTransform="matrix(1 0 0 -1 0 -16896)">
		<stop  offset="0" style="stop-color:#4F3E90"/>
		<stop  offset="1" style="stop-color:#171A31"/>
	</linearGradient>
	<polygon class="st64" points="764.7,145.6 764.7,152.4 904.8,71.6 904.8,64.7 	"/>
	
		<linearGradient id="SVGID_15_" gradientUnits="userSpaceOnUse" x1="764.6953" y1="-17018.8066" x2="904.7995" y2="-17018.8066" gradientTransform="matrix(1 0 0 -1 0 -16896)">
		<stop  offset="0" style="stop-color:#4F3E90"/>
		<stop  offset="1" style="stop-color:#171A31"/>
	</linearGradient>
	<polygon class="st65" points="764.7,159.9 764.7,166.6 904.8,85.9 904.8,79 	"/>
	
		<linearGradient id="SVGID_16_" gradientUnits="userSpaceOnUse" x1="764.6953" y1="-17033.0664" x2="904.7995" y2="-17033.0664" gradientTransform="matrix(1 0 0 -1 0 -16896)">
		<stop  offset="0" style="stop-color:#4F3E90"/>
		<stop  offset="1" style="stop-color:#171A31"/>
	</linearGradient>
	<polygon class="st66" points="764.7,174.1 764.7,180.9 904.8,100.1 904.8,93.2 	"/>
	
		<linearGradient id="SVGID_17_" gradientUnits="userSpaceOnUse" x1="764.6953" y1="-17047.3262" x2="904.7995" y2="-17047.3262" gradientTransform="matrix(1 0 0 -1 0 -16896)">
		<stop  offset="0" style="stop-color:#4F3E90"/>
		<stop  offset="1" style="stop-color:#171A31"/>
	</linearGradient>
	<polygon class="st67" points="764.7,188.4 764.7,195.1 904.8,114.4 904.8,107.5 	"/>
</g>
<g>
	
		<linearGradient id="SVGID_18_" gradientUnits="userSpaceOnUse" x1="-473.1447" y1="-17009.1523" x2="-449.5504" y2="-17009.1523" gradientTransform="matrix(1 0 0 -1 0 -16896)">
		<stop  offset="0" style="stop-color:#7F00FF"/>
		<stop  offset="1" style="stop-color:#3F00FC"/>
	</linearGradient>
	<path class="st68" d="M-469.5,108.5c0,0,4-3.7,13.1-1.5c9.1,2.2,6.6,8.1,6.6,8.1s-2.5,5.6-13.8,4.9
		C-463.6,120-480.3,116.8-469.5,108.5z"/>
	
		<linearGradient id="SVGID_19_" gradientUnits="userSpaceOnUse" x1="-486.4091" y1="-17009.459" x2="-435.0183" y2="-17009.459" gradientTransform="matrix(1 0 0 -1 0 -16896)">
		<stop  offset="0" style="stop-color:#7F00FF"/>
		<stop  offset="1" style="stop-color:#3F00FC"/>
	</linearGradient>
	<path class="st69" d="M-465.9,99.8c0,0,22.8-2.6,28.6,11.9s-24.1,15.6-24.1,15.6s-23.8-1.3-23.6-15
		C-484.9,112.3-484.7,102.3-465.9,99.8z"/>
</g>
<g>
	
		<linearGradient id="SVGID_20_" gradientUnits="userSpaceOnUse" x1="-58.7565" y1="-16936.1797" x2="-35.1622" y2="-16936.1797" gradientTransform="matrix(1 0 0 -1 0 -16896)">
		<stop  offset="0" style="stop-color:#7F00FF"/>
		<stop  offset="1" style="stop-color:#3F00FC"/>
	</linearGradient>
	<path class="st70" d="M-55.1,35.5c0,0,4-3.7,13.1-1.5s6.6,8.1,6.6,8.1S-38,47.7-49.2,47C-49.2,47-65.9,43.8-55.1,35.5z"/>
	
		<linearGradient id="SVGID_21_" gradientUnits="userSpaceOnUse" x1="-72.0209" y1="-16936.4863" x2="-20.6301" y2="-16936.4863" gradientTransform="matrix(1 0 0 -1 0 -16896)">
		<stop  offset="0" style="stop-color:#7F00FF"/>
		<stop  offset="1" style="stop-color:#3F00FC"/>
	</linearGradient>
	<path class="st71" d="M-51.5,26.8c0,0,22.8-2.6,28.6,11.9S-47,54.3-47,54.3s-23.8-1.3-23.6-15C-70.5,39.3-70.3,29.3-51.5,26.8z"/>
</g>
<g>
	
		<linearGradient id="SVGID_22_" gradientUnits="userSpaceOnUse" x1="0.629" y1="-16815.3418" x2="24.2234" y2="-16815.3418" gradientTransform="matrix(1 0 0 -1 0 -16896)">
		<stop  offset="0" style="stop-color:#7F00FF"/>
		<stop  offset="1" style="stop-color:#3F00FC"/>
	</linearGradient>
	<path class="st72" d="M4.2-85.3c0,0,4-3.7,13.1-1.5c9.1,2.2,6.6,8.1,6.6,8.1s-2.5,5.6-13.8,4.9C10.2-73.8-6.5-77,4.2-85.3z"/>
	
		<linearGradient id="SVGID_23_" gradientUnits="userSpaceOnUse" x1="-12.6354" y1="-16815.6484" x2="38.7555" y2="-16815.6484" gradientTransform="matrix(1 0 0 -1 0 -16896)">
		<stop  offset="0" style="stop-color:#7F00FF"/>
		<stop  offset="1" style="stop-color:#3F00FC"/>
	</linearGradient>
	<path class="st73" d="M7.9-94c0,0,22.8-2.6,28.6,11.9S12.4-66.5,12.4-66.5s-23.8-1.3-23.6-15C-11.1-81.5-10.9-91.5,7.9-94z"/>
</g>
<g>
	
		<linearGradient id="SVGID_24_" gradientUnits="userSpaceOnUse" x1="148.7415" y1="-16694.0371" x2="172.3358" y2="-16694.0371" gradientTransform="matrix(1 0 0 -1 0 -16896)">
		<stop  offset="0" style="stop-color:#7F00FF"/>
		<stop  offset="1" style="stop-color:#3F00FC"/>
	</linearGradient>
	<path class="st74" d="M152.4-206.6c0,0,4-3.7,13.1-1.5c9.1,2.2,6.6,8.1,6.6,8.1s-2.5,5.6-13.8,4.9
		C158.3-195.1,141.6-198.3,152.4-206.6z"/>
	
		<linearGradient id="SVGID_25_" gradientUnits="userSpaceOnUse" x1="135.4771" y1="-16694.3438" x2="186.8679" y2="-16694.3438" gradientTransform="matrix(1 0 0 -1 0 -16896)">
		<stop  offset="0" style="stop-color:#7F00FF"/>
		<stop  offset="1" style="stop-color:#3F00FC"/>
	</linearGradient>
	<path class="st75" d="M156-215.3c0,0,22.8-2.6,28.6,11.9s-24.1,15.6-24.1,15.6s-23.8-1.3-23.6-15C137-202.8,137.2-212.8,156-215.3z
		"/>
</g>
</svg>
