<?xml version="1.0" encoding="utf-8"?>
<!-- Generator: Adobe Illustrator 19.0.0, SVG Export Plug-In . SVG Version: 6.00 Build 0)  -->
<svg version="1.1" id="Capa_1" xmlns="http://www.w3.org/2000/svg" xmlns:xlink="http://www.w3.org/1999/xlink" x="0px" y="0px"
	 viewBox="-369 192 220 177" style="enable-background:new -369 192 220 177;" xml:space="preserve">
<style type="text/css">
	.st0{opacity:0.2;fill:#1E1A21;enable-background:new    ;}
	.st1{fill:url(#SVGID_1_);}
	.st2{fill:url(#SVGID_2_);}
	.st3{fill:url(#SVGID_3_);}
	.st4{fill:url(#SVGID_4_);}
	.st5{fill:url(#SVGID_5_);}
	.st6{fill:url(#SVGID_6_);}
	.st7{opacity:0.25;fill:url(#SVGID_7_);enable-background:new    ;}
	.st8{fill:url(#SVGID_8_);}
	.st9{fill:url(#SVGID_9_);}
</style>
<path class="st0" d="M-322.9,311.1c0,0-2.5,1.3,0.4,4.4c2.9,3.2,63.8,36.7,63.8,36.7s5,2.6,8.8,0l55.5-32.5c0,0,1.4-2.1-1.5-3.6
	l-63.8-36.9c0,0-3.2-2.5-7.5,0S-322.9,311.1-322.9,311.1z"/>
<linearGradient id="SVGID_1_" gradientUnits="userSpaceOnUse" x1="-323.9243" y1="262.75" x2="-194.0851" y2="262.75" gradientTransform="matrix(1 0 0 -1 0 562)">
	<stop  offset="0" style="stop-color:#4F3E90"/>
	<stop  offset="1" style="stop-color:#171A31"/>
</linearGradient>
<path class="st1" d="M-322.9,294.6c0,0-2.5,1.3,0.4,4.4c2.9,3.2,63.8,36.7,63.8,36.7s5,2.6,8.8,0l55.5-32.5c0,0,1.4-2.1-1.5-3.6
	l-63.8-36.9c0,0-3.2-2.5-7.5,0S-322.9,294.6-322.9,294.6z"/>
<linearGradient id="SVGID_2_" gradientUnits="userSpaceOnUse" x1="-323.9229" y1="241.5811" x2="-194.0757" y2="241.5811" gradientTransform="matrix(1 0 0 -1 0 562)">
	<stop  offset="0" style="stop-color:#463780"/>
	<stop  offset="0.1433" style="stop-color:#382E68"/>
	<stop  offset="0.3308" style="stop-color:#292550"/>
	<stop  offset="0.5289" style="stop-color:#1F1F3F"/>
	<stop  offset="0.7426" style="stop-color:#191B34"/>
	<stop  offset="1" style="stop-color:#171A31"/>
</linearGradient>
<path class="st2" d="M-323.9,303.7v-7.6c0,0,0,2,2.2,3.6c2.3,1.5,17.7,10.7,17.7,10.7l23.1,13l21.9,12.2c0,0,4.9,2.7,8.8,0.4
	s55.8-32.7,55.8-32.7s0.5-0.7,0.3-1.8v8.2c0,0.7-0.4,1.4-1,1.7l-54.4,31.7c0,0-5.5,4.1-10.9-0.9l-62.5-36.6
	C-323.5,305.2-323.9,304.4-323.9,303.7L-323.9,303.7z"/>
<linearGradient id="SVGID_3_" gradientUnits="userSpaceOnUse" x1="-323.9243" y1="280.75" x2="-194.0851" y2="280.75" gradientTransform="matrix(1 0 0 -1 0 562)">
	<stop  offset="0" style="stop-color:#4F3E90"/>
	<stop  offset="1" style="stop-color:#171A31"/>
</linearGradient>
<path class="st3" d="M-322.9,276.6c0,0-2.5,1.3,0.4,4.4c2.9,3.2,63.8,36.7,63.8,36.7s5,2.6,8.8,0l55.5-32.5c0,0,1.4-2.1-1.5-3.6
	l-63.8-36.9c0,0-3.2-2.5-7.5,0S-322.9,276.6-322.9,276.6z"/>
<linearGradient id="SVGID_4_" gradientUnits="userSpaceOnUse" x1="-323.9229" y1="259.5811" x2="-194.0757" y2="259.5811" gradientTransform="matrix(1 0 0 -1 0 562)">
	<stop  offset="0" style="stop-color:#463780"/>
	<stop  offset="0.1433" style="stop-color:#382E68"/>
	<stop  offset="0.3308" style="stop-color:#292550"/>
	<stop  offset="0.5289" style="stop-color:#1F1F3F"/>
	<stop  offset="0.7426" style="stop-color:#191B34"/>
	<stop  offset="1" style="stop-color:#171A31"/>
</linearGradient>
<path class="st4" d="M-323.9,285.7v-7.6c0,0,0,2,2.2,3.6c2.2,1.6,17.7,10.7,17.7,10.7l23.1,13l21.9,12.2c0,0,4.9,2.7,8.8,0.4
	s55.8-32.7,55.8-32.7s0.5-0.7,0.3-1.8v8.2c0,0.7-0.4,1.4-1,1.7l-54.4,31.7c0,0-5.5,4.1-10.9-0.9l-62.5-36.6
	C-323.5,287.2-323.9,286.4-323.9,285.7L-323.9,285.7z"/>
<linearGradient id="SVGID_5_" gradientUnits="userSpaceOnUse" x1="-323.9243" y1="298.75" x2="-194.0851" y2="298.75" gradientTransform="matrix(1 0 0 -1 0 562)">
	<stop  offset="0" style="stop-color:#4F3E90"/>
	<stop  offset="1" style="stop-color:#171A31"/>
</linearGradient>
<path class="st5" d="M-322.9,258.6c0,0-2.5,1.3,0.4,4.4c2.9,3.2,63.8,36.7,63.8,36.7s5,2.6,8.8,0l55.5-32.5c0,0,1.4-2.1-1.5-3.6
	l-63.8-36.9c0,0-3.2-2.5-7.5,0S-322.9,258.6-322.9,258.6z"/>
<linearGradient id="SVGID_6_" gradientUnits="userSpaceOnUse" x1="-323.9229" y1="277.5811" x2="-194.0757" y2="277.5811" gradientTransform="matrix(1 0 0 -1 0 562)">
	<stop  offset="0" style="stop-color:#463780"/>
	<stop  offset="0.1433" style="stop-color:#382E68"/>
	<stop  offset="0.3308" style="stop-color:#292550"/>
	<stop  offset="0.5289" style="stop-color:#1F1F3F"/>
	<stop  offset="0.7426" style="stop-color:#191B34"/>
	<stop  offset="1" style="stop-color:#171A31"/>
</linearGradient>
<path class="st6" d="M-323.9,267.7v-7.6c0,0,0,2,2.2,3.6c2.2,1.6,17.7,10.7,17.7,10.7l23.1,13l21.9,12.2c0,0,4.9,2.7,8.8,0.4
	s55.8-32.7,55.8-32.7s0.5-0.7,0.3-1.8v8.2c0,0.7-0.4,1.4-1,1.7l-54.4,31.7c0,0-5.5,4.1-10.9-0.9l-62.5-36.6
	C-323.5,269.2-323.9,268.4-323.9,267.7L-323.9,267.7z"/>
<linearGradient id="SVGID_7_" gradientUnits="userSpaceOnUse" x1="-265.8495" y1="267.4109" x2="-249.0308" y2="330.179" gradientTransform="matrix(1 0 0 -1 0 562)">
	<stop  offset="0" style="stop-color:#4F3E90;stop-opacity:0.6"/>
	<stop  offset="1" style="stop-color:#171ABF;stop-opacity:0.4"/>
</linearGradient>
<path class="st7" d="M-316.1,258.9c0,0-2.3,1.1,0.4,4.1c2.7,2.9,58.6,33.7,58.6,33.7s4.6,2.4,8,0l51-29.8c0,0,1.3-2-1.4-3.3
	l-58.6-33.9c0,0-2.9-2.3-6.9,0C-268.9,231.9-316.1,258.9-316.1,258.9z"/>
<g>
	
		<linearGradient id="SVGID_8_" gradientUnits="userSpaceOnUse" x1="-323.9243" y1="316.75" x2="-194.0851" y2="316.75" gradientTransform="matrix(1 0 0 -1 0 562)">
		<stop  offset="0" style="stop-color:#4F3E90"/>
		<stop  offset="1" style="stop-color:#171A31"/>
	</linearGradient>
	<path class="st8" d="M-322.9,240.6c0,0-2.5,1.3,0.4,4.4c2.9,3.2,63.8,36.7,63.8,36.7s5,2.6,8.8,0l55.5-32.5c0,0,1.4-2.1-1.5-3.6
		l-63.8-36.9c0,0-3.2-2.5-7.5,0S-322.9,240.6-322.9,240.6z"/>
	
		<linearGradient id="SVGID_9_" gradientUnits="userSpaceOnUse" x1="-323.9229" y1="295.5811" x2="-194.0757" y2="295.5811" gradientTransform="matrix(1 0 0 -1 0 562)">
		<stop  offset="0" style="stop-color:#463780"/>
		<stop  offset="0.1433" style="stop-color:#382E68"/>
		<stop  offset="0.3308" style="stop-color:#292550"/>
		<stop  offset="0.5289" style="stop-color:#1F1F3F"/>
		<stop  offset="0.7426" style="stop-color:#191B34"/>
		<stop  offset="1" style="stop-color:#171A31"/>
	</linearGradient>
	<path class="st9" d="M-323.9,249.7v-7.6c0,0,0,2,2.2,3.6c2.2,1.6,17.7,10.7,17.7,10.7l23.1,13l21.9,12.2c0,0,4.9,2.7,8.8,0.4
		s55.8-32.7,55.8-32.7s0.5-0.7,0.3-1.8v8.2c0,0.7-0.4,1.4-1,1.7l-54.4,31.7c0,0-5.5,4.1-10.9-0.9l-62.5-36.6
		C-323.5,251.2-323.9,250.4-323.9,249.7L-323.9,249.7z"/>
</g>
</svg>
